<?xml version="1.0" standalone="no"?>
<!DOCTYPE svg PUBLIC "-//W3C//DTD SVG 20010904//EN"
 "http://www.w3.org/TR/2001/REC-SVG-20010904/DTD/svg10.dtd">
<svg version="1.0" xmlns="http://www.w3.org/2000/svg"
 width="512.000000pt" height="441.000000pt" viewBox="0 0 512.000000 441.000000"
 preserveAspectRatio="xMidYMid meet">

<g transform="translate(0.000000,441.000000) scale(0.100000,-0.100000)"
fill="#000000" stroke="none">
<path d="M455 4395 c-130 -28 -255 -107 -332 -210 -60 -79 -80 -122 -104 -212
-18 -72 -19 -116 -19 -812 0 -593 3 -749 14 -802 45 -210 220 -387 436 -440
82 -21 3968 -21 4050 0 216 53 386 223 435 435 14 58 15 167 13 834 l-3 767
-23 62 c-64 171 -193 299 -363 361 l-74 27 -1985 2 c-1613 1 -1996 -1 -2045
-12z m4047 -261 c64 -21 122 -75 155 -142 l28 -57 0 -790 0 -790 -24 -48 c-29
-59 -106 -129 -159 -145 -30 -9 -524 -12 -2043 -12 l-2004 0 -50 24 c-52 24
-101 72 -132 129 -17 30 -18 89 -21 822 -2 578 0 801 9 830 23 81 88 149 174
182 22 9 524 12 2026 12 1780 1 2000 -1 2041 -15z"/>
<path d="M594 3150 c-34 -13 -64 -59 -64 -97 0 -26 8 -43 34 -69 l34 -34 1816
0 c2018 0 1862 -5 1892 67 20 47 4 97 -40 124 -30 18 -74 19 -1841 18 -995 0
-1820 -4 -1831 -9z"/>
<path d="M581 2726 c-48 -27 -66 -100 -35 -145 38 -54 -58 -51 1880 -51 1599
0 1800 2 1829 15 50 24 72 79 51 129 -30 72 141 66 -1881 66 -1491 -1 -1824
-3 -1844 -14z"/>
<path d="M823 1650 c-47 -19 -70 -94 -44 -144 7 -13 32 -34 55 -46 160 -88
179 -227 61 -445 -165 -304 -130 -587 94 -755 65 -49 113 -54 159 -15 58 49
47 131 -22 174 -73 45 -120 143 -119 247 1 74 21 139 83 264 75 150 85 188 85
320 0 109 -2 119 -32 183 -39 81 -117 162 -194 201 -55 27 -88 31 -126 16z"/>
<path d="M2211 1646 c-55 -30 -67 -106 -25 -155 14 -17 30 -31 35 -31 23 0 92
-57 114 -94 53 -91 41 -173 -54 -369 -74 -151 -94 -225 -94 -342 0 -134 43
-244 132 -339 49 -52 119 -96 153 -96 64 0 108 46 108 111 0 23 -15 44 -73
102 -83 81 -107 132 -107 227 0 74 21 143 80 260 108 216 124 366 56 516 -33
71 -112 154 -185 193 -63 33 -102 38 -140 17z"/>
<path d="M3572 1630 c-70 -43 -76 -145 -12 -192 30 -22 30 -22 30 -125 0 -57
-3 -103 -6 -103 -3 0 -50 25 -104 55 -83 47 -99 60 -104 86 -13 69 -93 105
-160 74 -72 -34 -88 -119 -34 -180 30 -35 33 -36 92 -34 56 3 68 -1 136 -40
41 -23 79 -46 83 -50 5 -5 -32 -31 -81 -58 -73 -41 -93 -48 -113 -41 -36 14
-89 0 -121 -32 -52 -53 -32 -151 38 -185 65 -31 143 6 162 78 6 24 25 40 101
83 51 30 97 54 102 54 5 0 9 -45 9 -101 0 -97 -1 -102 -26 -122 -32 -25 -57
-81 -49 -110 19 -69 56 -97 126 -97 33 0 47 6 75 34 29 29 34 41 34 81 0 39
-5 52 -30 77 -30 30 -31 31 -28 128 l3 98 88 -51 c67 -39 87 -56 87 -73 0 -52
78 -103 139 -89 15 3 41 20 57 36 24 25 29 39 29 80 0 45 -4 54 -33 80 -30 27
-40 30 -90 28 -51 -3 -65 2 -134 40 -43 23 -80 47 -83 51 -3 5 32 30 77 56 74
42 89 46 140 45 49 -2 61 2 88 26 59 53 48 153 -20 188 -67 35 -150 1 -168
-68 -6 -26 -23 -41 -87 -79 -44 -27 -83 -48 -87 -48 -5 0 -8 43 -8 96 0 93 1
98 30 131 89 101 -33 243 -148 173z"/>
<path d="M1499 1511 c-39 -39 -40 -96 -3 -140 14 -17 30 -31 36 -31 23 0 100
-64 123 -104 56 -96 42 -197 -56 -392 -73 -148 -98 -224 -106 -331 -7 -94 7
-181 41 -257 56 -123 192 -256 263 -256 50 0 103 54 103 105 0 32 -9 45 -78
113 -82 80 -103 119 -117 217 -11 68 20 180 84 311 94 191 105 229 106 365 0
113 -1 116 -38 191 -60 123 -202 238 -292 238 -27 0 -44 -8 -66 -29z"/>
</g>
</svg>
