<?xml version="1.0" encoding="iso-8859-1"?>
<!-- Generator: Adobe Illustrator 19.0.0, SVG Export Plug-In . SVG Version: 6.00 Build 0)  -->
<svg version="1.1" id="Layer_1" xmlns="http://www.w3.org/2000/svg" xmlns:xlink="http://www.w3.org/1999/xlink" x="0px" y="0px"
	 viewBox="0 0 512.011 512.011" style="enable-background:new 0 0 512.011 512.011;" xml:space="preserve">
<g>
	<g>
		<g>
			<path d="M490.672,213.341H341.339h-12.501L505.755,36.424c8.341-8.341,8.341-21.824,0-30.165c-8.341-8.341-21.824-8.341-30.165,0
				L268.507,213.341H21.339c-11.776,0-21.333,9.557-21.333,21.333v85.333c0,11.776,9.557,21.333,21.333,21.333h119.168
				L6.256,475.592c-8.341,8.341-8.341,21.824,0,30.165c4.16,4.16,9.621,6.251,15.083,6.251c5.461,0,10.923-2.091,15.083-6.251
				l164.416-164.416h140.501h149.333c11.776,0,21.333-9.557,21.333-21.333v-85.333C512.005,222.899,502.448,213.341,490.672,213.341
				z"/>
			<path d="M42.672,192.008c11.776,0,21.333-9.557,21.333-21.333c0-8.107,2.709-11.392,3.051-11.691h36.565
				c21.845,0,39.616-17.771,39.616-39.616c0-2.901-0.299-5.76-0.896-8.533c11.691-9.515,19.179-24,19.179-40.213
				c0-20.608-12.181-39.232-31.04-47.488c-10.795-4.757-23.381,0.192-28.096,10.987c-4.736,10.795,0.192,23.381,10.987,28.096
				c3.328,1.451,5.483,4.757,5.483,8.405c0,5.035-4.075,9.131-9.088,9.131c-10.389,0-19.264,7.467-21.035,17.707
				c-1.216,7.083,1.216,14.08,6.101,18.859H67.056c-26.069,0-45.717,23.36-45.717,54.357
				C21.339,182.451,30.896,192.008,42.672,192.008z"/>
		</g>
	</g>
</g>
<g>
</g>
<g>
</g>
<g>
</g>
<g>
</g>
<g>
</g>
<g>
</g>
<g>
</g>
<g>
</g>
<g>
</g>
<g>
</g>
<g>
</g>
<g>
</g>
<g>
</g>
<g>
</g>
<g>
</g>
</svg>
