<?xml version="1.0" standalone="no"?>
<!DOCTYPE svg PUBLIC "-//W3C//DTD SVG 20010904//EN"
 "http://www.w3.org/TR/2001/REC-SVG-20010904/DTD/svg10.dtd">
<svg version="1.0" xmlns="http://www.w3.org/2000/svg"
 width="68.000000pt" height="68.000000pt" viewBox="0 0 68.000000 68.000000"
 preserveAspectRatio="xMidYMid meet">

<g transform="translate(0.000000,68.000000) scale(0.100000,-0.100000)"
fill="#000000" stroke="none">
<path d="M425 605 c-14 -13 -25 -33 -25 -45 0 -27 43 -70 70 -70 12 0 32 11
45 25 32 31 32 59 0 90 -13 14 -33 25 -45 25 -11 0 -32 -11 -45 -25z"/>
<path d="M323 553 c9 -2 25 -2 35 0 9 3 1 5 -18 5 -19 0 -27 -2 -17 -5z"/>
<path d="M573 553 c9 -2 25 -2 35 0 9 3 1 5 -18 5 -19 0 -27 -2 -17 -5z"/>
<path d="M369 473 l-24 -28 28 24 c25 23 32 31 24 31 -2 0 -14 -12 -28 -27z"/>
<path d="M560 475 c13 -14 26 -25 28 -25 3 0 -5 11 -18 25 -13 14 -26 25 -28
25 -3 0 5 -11 18 -25z"/>
<path d="M0 340 l0 -150 90 0 90 0 0 -95 c0 -78 3 -95 15 -95 12 0 15 19 15
110 l0 110 -90 0 -90 0 0 135 c0 113 -2 135 -15 135 -13 0 -15 -23 -15 -150z"/>
<path d="M650 355 l0 -135 -90 0 -90 0 0 -110 c0 -91 3 -110 15 -110 12 0 15
17 15 95 l0 95 90 0 90 0 0 150 c0 127 -2 150 -15 150 -13 0 -15 -22 -15 -135z"/>
<path d="M472 440 c0 -19 2 -27 5 -17 2 9 2 25 0 35 -3 9 -5 1 -5 -18z"/>
<path d="M140 285 c0 -12 17 -15 90 -15 l90 0 0 -135 c0 -113 2 -135 15 -135
13 0 15 22 15 135 l0 135 95 0 c78 0 95 3 95 15 0 13 -29 15 -200 15 -171 0
-200 -2 -200 -15z"/>
</g>
</svg>
